<svg id="Camada_1" data-name="Camada 1" xmlns="http://www.w3.org/2000/svg" xmlns:xlink="http://www.w3.org/1999/xlink" viewBox="0 0 2433.84 804.98"><defs><style>.cls-1{fill:url(#Gradiente_sem_nome_176);}.cls-2,.cls-3{fill:none;}.cls-3{stroke:#333;stroke-miterlimit:10;}.cls-4{fill:url(#Gradiente_sem_nome_43);}.cls-5{fill:url(#Gradiente_sem_nome_50);}.cls-6{fill:url(#Gradiente_sem_nome_50-2);}.cls-7{fill:url(#Gradiente_sem_nome_72);}.cls-8{fill:url(#Gradiente_sem_nome_126);}.cls-9{fill:url(#Gradiente_sem_nome_156);}.cls-10{fill:url(#Gradiente_sem_nome_179);}.cls-11{font-size:320px;fill:#7115e8;font-family:BerlinSansFBDemi-Bold, Berlin Sans FB Demi;font-weight:700;}.cls-12{fill:#fc872e;}</style><linearGradient id="Gradiente_sem_nome_176" x1="495.03" y1="1503.79" x2="140.5" y2="1149.26" gradientUnits="userSpaceOnUse"><stop offset="0.02" stop-color="#0080ff"/><stop offset="0.82" stop-color="#9219f2"/></linearGradient><linearGradient id="Gradiente_sem_nome_43" x1="640.56" y1="234.51" x2="436.71" y2="116.81" gradientUnits="userSpaceOnUse"><stop offset="0" stop-color="#466ee8"/><stop offset="0" stop-color="#27b2f3"/><stop offset="1" stop-color="#6319f2"/></linearGradient><linearGradient id="Gradiente_sem_nome_50" x1="577.3" y1="1383.65" x2="870.28" y2="1383.65" gradientUnits="userSpaceOnUse"><stop offset="0" stop-color="#821bef"/><stop offset="0" stop-color="#da4594"/><stop offset="0" stop-color="#f95474"/><stop offset="1" stop-color="#fc872e"/></linearGradient><linearGradient id="Gradiente_sem_nome_50-2" x1="664.99" y1="1652.33" x2="882.58" y2="1652.33" xlink:href="#Gradiente_sem_nome_50"/><linearGradient id="Gradiente_sem_nome_72" x1="483.62" y1="1278.93" x2="834.14" y2="1524.37" gradientUnits="userSpaceOnUse"><stop offset="0" stop-color="#821bef"/><stop offset="0.46" stop-color="#dd43a7"/><stop offset="0.63" stop-color="#ff528c"/><stop offset="1" stop-color="#fc872e"/></linearGradient><linearGradient id="Gradiente_sem_nome_126" x1="87.12" y1="1547.64" x2="464.45" y2="1547.64" gradientUnits="userSpaceOnUse"><stop offset="0" stop-color="#0a82d6" stop-opacity="0.3"/><stop offset="1" stop-color="#5aa5ff"/></linearGradient><linearGradient id="Gradiente_sem_nome_156" x1="46.48" y1="1621.36" x2="289.03" y2="1621.36" gradientUnits="userSpaceOnUse"><stop offset="0" stop-color="#58d5b7" stop-opacity="0.3"/><stop offset="0.1" stop-color="#50d2c4" stop-opacity="0.43"/><stop offset="0.27" stop-color="#44cfd6" stop-opacity="0.6"/><stop offset="0.43" stop-color="#3bcbe5" stop-opacity="0.74"/><stop offset="0.58" stop-color="#33c9f0" stop-opacity="0.86"/><stop offset="0.73" stop-color="#2ec7f8" stop-opacity="0.94"/><stop offset="0.88" stop-color="#2bc6fd" stop-opacity="0.98"/><stop offset="1" stop-color="#2ac6ff"/></linearGradient><linearGradient id="Gradiente_sem_nome_179" x1="510.76" y1="1058.84" x2="663.35" y2="1058.84" gradientUnits="userSpaceOnUse"><stop offset="0" stop-color="#58d5b7" stop-opacity="0.12"/><stop offset="0.29" stop-color="#43ced8" stop-opacity="0.12"/><stop offset="1" stop-color="#2ac6ff" stop-opacity="0.12"/></linearGradient></defs><title>AnnotAction</title><path class="cls-1" d="M494.76,1037.57l19.82-47.87,15.16-36.61,19.82-47.88H379.06l-.12.29-68.05,164.32-18.33,44.28-26.84,64.82-12.26,29.59-12.26,29.6-7.52,18.18L219.31,1291l-39.73,96-61.05,147.45L112.05,1550l-7.32,17.69L92.88,1596.3l-46.4,112h146.8a35.47,35.47,0,0,0,32.78-21.9l37.33-90.15,11.85-28.61,7.32-17.69,6.47-15.63H464.45V1386.92H350.09l39.73-96,14.36-34.68,7.53-18.18,1.43-3.44L424,1208.51l7.5-18.12,4.76-11.47,28-67.54.26-.62Z" transform="translate(-46.48 -903.37)"/><polygon class="cls-2" points="417.71 208.01 417.97 208.62 417.97 207.39 417.71 208.01"/><polygon class="cls-3" points="503.31 1.31 503.09 1.84 503.53 1.84 503.31 1.31"/><polygon class="cls-4" points="468.1 275.54 506.44 275.54 545.57 275.54 591.96 275.54 616.87 275.54 591.96 215.38 551.69 118.15 545.57 103.36 506.44 8.87 503.53 1.84 503.09 1.84 483.26 49.72 468.1 86.32 448.28 134.19 417.97 207.39 417.97 208.62 445.68 275.54 448.28 275.54 468.1 275.54"/><path class="cls-5" d="M761.7,1343.55l-21.51,20.94-15.62,15.2-7.43,7.23-41.27,40.18-3.89,3.79-18-18-15.58-15.57L628,1386.92l-11.21-11.2a15.83,15.83,0,0,0-22.23-.15l-2.53,2.46-9.14,8.89-3.29,3.21h0a7.68,7.68,0,0,0-.07,10.94l7.86,7.86,4.64,4.64,30.23,30.23L638.43,1460l1.83,1.82,28.6,28.6a5,5,0,0,0,7,.05h0l28.2-27.45,20.5-20,34.31-33.4,2.82-2.74,20.48-19.95,16.64-16.2,25.4-24.72,43.33-42.18a9,9,0,0,0,.09-12.85h0l-8.19-8.18a25,25,0,0,0-35.09-.24l-.14.14L815.7,1291l-16.88,16.44Z" transform="translate(-46.48 -903.37)"/><path class="cls-6" d="M836.18,1596.3H665l10.88,26.26,30.49,73.62a19.71,19.71,0,0,0,18.21,12.17h158l-3-7.28Z" transform="translate(-46.48 -903.37)"/><polygon class="cls-2" points="833.09 797.7 836.11 804.98 840.37 804.98 833.09 797.7"/><path class="cls-7" d="M803.6,1401.9v122a24.31,24.31,0,0,1-24.32,24.31H536.38A24.3,24.3,0,0,1,512.07,1524v-242.9a24.31,24.31,0,0,1,24.31-24.32h14.55v14.68a20.16,20.16,0,0,0,20.16,20.16h0a20.15,20.15,0,0,0,20.16-20.16v-14.68h46.42v14.68a20.16,20.16,0,1,0,40.32,0v-14.68h45.8v14.68a20.16,20.16,0,1,0,40.32,0v-14.68h15.17a24.32,24.32,0,0,1,21.6,13.17l15.6-14.33a43.43,43.43,0,0,0-35.84-18.88H764.11v-13.42a20.16,20.16,0,1,0-40.32,0v13.42H678v-13.42a20.16,20.16,0,1,0-40.32,0v13.42H591.25v-13.42a20.15,20.15,0,0,0-20.16-20.16h0a20.16,20.16,0,0,0-20.16,20.16v13.42H535.82a43.47,43.47,0,0,0-43.47,43.47V1525a43.48,43.48,0,0,0,43.47,43.47H780.64A43.48,43.48,0,0,0,824.11,1525v-143.2Z" transform="translate(-46.48 -903.37)"/><path class="cls-8" d="M87.12,1610.22a361.65,361.65,0,0,1,334.14-223.3h43.19v147.45H289L226.32,1685.3a37.4,37.4,0,0,1-34.55,23Z" transform="translate(-46.48 -903.37)"/><path class="cls-9" d="M205.6,1534.37H289l-58.35,140.44a54.42,54.42,0,0,1-50.26,33.54H46.48l38.73-93.53A130.3,130.3,0,0,1,205.6,1534.37Z" transform="translate(-46.48 -903.37)"/><path class="cls-10" d="M514.58,1178.92S490.34,979.13,563.9,938.76l99.45,240.16Z" transform="translate(-46.48 -903.37)"/><text class="cls-11" transform="translate(866.19 665.07)">nnot<tspan class="cls-12" x="652.97" y="0">Action</tspan></text></svg>